<svg width="3258" height="4384" viewBox="0 0 3258 4384" fill="none" xmlns="http://www.w3.org/2000/svg">
<path d="M2626.22 1258.54C2709.23 1321.5 2713.29 1397.16 2639.17 1485.77L2471.89 1674.41C2460.46 1685.84 2443.2 1691.68 2420.36 1691.68C2397.51 1691.68 2380.25 1686.09 2368.83 1674.41C2283.03 1597.23 2181.49 1558.64 2064.47 1558.64C1921.56 1558.64 1827.14 1585.8 1781.44 1640.13C1690.06 1740.17 1767.23 1818.87 2012.95 1876C2030.21 1878.79 2047.21 1881.84 2064.47 1884.63C2295.98 1913.32 2471.89 1979.08 2591.95 2081.91C2712.02 2184.73 2771.92 2350.78 2771.92 2579.53C2771.92 2779.85 2694 2934.22 2538.14 3042.63C2382.28 3151.3 2200.02 3205.63 1991.37 3205.63C1691.33 3205.63 1448.15 3132.76 1262.34 2986.77C1228.07 2961.13 1209.29 2929.65 1206.5 2892.33C1203.71 2855.26 1216.4 2820.98 1245.08 2789.5L1433.68 2583.59C1445.11 2572.17 1461.61 2566.33 1482.93 2566.33C1504.25 2566.33 1522.27 2572.17 1536.49 2583.59C1627.87 2660.78 1756.57 2708 1922.32 2725.27C2028.18 2736.69 2121.84 2718.92 2203.32 2671.69C2284.81 2624.47 2301.31 2563.79 2252.57 2489.4C2221.09 2435.07 2111.18 2399.27 1922.32 2382.26C1467.7 2330.72 1240.51 2117.7 1240.51 1743.22C1240.51 1548.73 1315.65 1389.29 1465.67 1264.88C1615.69 1140.48 1788.04 1078.27 1982.48 1078.27C2130.98 1078.27 2252.57 1091.22 2347 1116.87C2441.93 1142.76 2534.84 1189.99 2626.22 1258.54Z" fill="#060000"/>
<path d="M2716.84 506.005C2659.73 451.672 2631.04 381.598 2631.04 295.783C2631.04 209.968 2658.97 139.132 2714.56 83.5302C2770.15 27.9281 2845.28 0 2939.71 0C3039.72 0 3117.65 27.1663 3173.5 81.4991C3229.34 135.832 3257.01 207.429 3257.01 296.037C3257.01 381.852 3228.33 451.926 3171.21 506.259C3113.85 560.592 3038.2 587.758 2944.03 587.758C2849.85 587.504 2773.95 560.338 2716.84 506.005Z" fill="#060000"/>
<path d="M2061.43 4301.67C2004.31 4247.34 1975.63 4177.27 1975.63 4091.45C1975.63 4005.64 2003.55 3934.8 2059.14 3879.2C2114.73 3823.6 2189.87 3795.67 2284.3 3795.67C2384.31 3795.67 2462.24 3822.84 2518.08 3877.17C2573.93 3931.5 2601.6 4003.1 2601.6 4091.71C2601.6 4177.52 2572.91 4247.6 2515.8 4301.93C2458.43 4356.26 2382.79 4383.43 2288.61 4383.43C2194.44 4383.17 2118.54 4356.01 2061.43 4301.67Z" fill="#060000"/>
<path d="M85.7976 2665.35C28.6838 2611.02 0 2540.94 0 2455.13C0 2369.31 27.9223 2298.48 83.5131 2242.88C139.104 2187.27 214.24 2159.35 308.668 2159.35C408.681 2159.35 486.61 2186.51 542.454 2240.85C598.299 2295.18 625.967 2366.78 625.967 2455.38C625.967 2541.2 597.284 2611.27 540.17 2665.6C482.802 2719.94 407.158 2747.1 312.984 2747.1C218.809 2746.6 143.165 2719.68 85.7976 2665.35Z" fill="#060000"/>
</svg>
