<svg width="4161" height="2991" viewBox="0 0 4161 2991" fill="none" xmlns="http://www.w3.org/2000/svg">
<path d="M1144.18 1136.23C1180.34 1163.66 1182.11 1196.62 1149.82 1235.23L1076.94 1317.41C1071.96 1322.39 1064.44 1324.94 1054.49 1324.94C1044.54 1324.94 1037.02 1322.5 1032.04 1317.41C994.659 1283.79 950.422 1266.97 899.439 1266.97C837.177 1266.97 796.037 1278.81 776.13 1302.48C736.317 1346.06 769.937 1380.35 876.989 1405.24C884.51 1406.46 891.919 1407.79 899.439 1409C1000.3 1421.5 1076.94 1450.15 1129.25 1494.95C1181.56 1539.75 1207.66 1612.09 1207.66 1711.75C1207.66 1799.03 1173.71 1866.28 1105.8 1913.51C1037.9 1960.86 958.495 1984.53 867.589 1984.53C736.87 1984.53 630.924 1952.78 549.971 1889.18C535.041 1878.01 526.857 1864.29 525.641 1848.03C524.424 1831.88 529.954 1816.95 542.451 1803.23L624.62 1713.52C629.597 1708.54 636.785 1706 646.075 1706C655.364 1706 663.216 1708.54 669.41 1713.52C709.222 1747.15 765.292 1767.72 837.508 1775.24C883.625 1780.22 924.433 1772.48 959.933 1751.91C995.433 1731.33 1002.62 1704.89 981.388 1672.48C967.674 1648.81 919.788 1633.22 837.508 1625.81C639.439 1603.35 540.46 1510.55 540.46 1347.39C540.46 1262.66 573.195 1193.19 638.555 1138.99C703.914 1084.79 779.006 1057.69 863.719 1057.69C928.414 1057.69 981.388 1063.33 1022.53 1074.51C1063.89 1085.79 1104.37 1106.36 1144.18 1136.23Z" fill="#060000"/>
<path d="M1955.03 1713.63C1972.4 1699.92 1986.77 1699.92 1997.94 1713.63L2095.15 1810.75C2108.87 1823.25 2115.06 1837.3 2113.84 1852.78C2112.63 1868.38 2104.44 1881.1 2089.51 1891.06C2009.78 1953.33 1915.77 1984.53 1807.39 1984.53C1675.35 1984.53 1564.87 1939.73 1475.73 1849.91C1386.7 1760.2 1342.14 1650.03 1342.14 1519.17C1342.14 1387.1 1386.7 1276.6 1475.73 1187.44C1564.76 1098.4 1675.35 1053.82 1807.39 1053.82C1914.56 1053.82 2009.11 1085.01 2091.39 1147.29C2106.32 1158.46 2114.4 1171.84 2115.72 1187.44C2116.94 1203.04 2110.75 1217.09 2097.03 1229.47L1999.93 1326.59C1986.22 1340.31 1971.29 1340.31 1955.14 1326.59C1911.57 1291.75 1861.69 1274.27 1805.62 1274.27C1737.17 1274.27 1681.1 1297.94 1637.53 1345.29C1593.95 1392.63 1572.17 1450.59 1572.17 1519.06C1572.17 1588.86 1593.95 1647.04 1637.53 1693.83C1681.1 1740.51 1737.17 1763.85 1805.62 1763.85C1864.13 1764.07 1913.89 1747.26 1955.03 1713.63Z" fill="#060000"/>
<path d="M2349.18 936.347C2324.19 912.676 2311.8 882.147 2311.8 844.759C2311.8 807.371 2323.97 776.51 2348.19 752.286C2372.52 727.951 2405.14 715.894 2446.28 715.894C2489.85 715.894 2523.81 727.729 2548.14 751.401C2572.35 775.072 2584.52 806.265 2584.52 844.87C2584.52 882.257 2572.02 912.787 2547.14 936.458C2522.26 960.129 2489.19 971.965 2448.16 971.965C2407.13 971.855 2374.18 960.019 2349.18 936.347ZM2577.11 1881.88C2577.11 1908.09 2568.04 1930.21 2550.02 1948.24C2531.99 1966.27 2509.87 1975.34 2483.66 1975.34H2414.54C2388.44 1975.34 2366.21 1966.27 2348.19 1948.24C2330.16 1930.21 2321.09 1908.09 2321.09 1881.88V1155.03C2321.09 1128.93 2330.16 1106.8 2348.19 1088.66C2366.21 1070.63 2388.33 1061.56 2414.54 1061.56H2483.66C2509.76 1061.56 2531.99 1070.63 2550.02 1088.66C2568.04 1106.69 2577.11 1128.82 2577.11 1155.03V1881.88Z" fill="#060000"/>
<path d="M3051.66 2266.81C3051.66 2291.7 3042.26 2313.49 3023.57 2332.19C3004.88 2350.88 2983.09 2360.17 2958.21 2360.17L2889.09 2358.29C2862.99 2358.29 2840.76 2349.22 2822.73 2331.19C2804.71 2313.16 2795.64 2291.04 2795.64 2264.82V1154.92C2795.64 1128.82 2804.71 1106.69 2822.73 1088.55C2840.76 1070.52 2862.88 1061.45 2889.09 1061.45H3016.16C3024.89 1061.45 3032.97 1064.88 3040.49 1071.74C3048.01 1078.6 3051.66 1087 3051.66 1096.96C3051.66 1105.7 3055.09 1111.89 3061.94 1115.65C3068.8 1119.41 3075.32 1118.75 3081.52 1113.77C3138.8 1078.93 3195.43 1061.45 3251.5 1061.45C3383.54 1061.45 3492.47 1105.03 3578.4 1192.31C3664.33 1279.47 3707.35 1387.87 3707.35 1517.51C3707.35 1644.61 3663.78 1754.23 3576.52 1846.37C3489.38 1938.62 3381 1981.54 3251.39 1975.35C3177.84 1970.37 3119.34 1952.34 3075.77 1921.14C3072.01 1919.93 3068.58 1919.26 3065.48 1919.26C3062.38 1919.26 3059.18 1920.26 3056.08 1922.03C3052.98 1923.8 3051.44 1926.67 3051.44 1930.44V2266.81H3051.66ZM3086.27 1694.94C3129.29 1741.06 3184.92 1764.07 3253.49 1764.07C3321.94 1764.07 3378.01 1741.06 3421.59 1694.94C3465.16 1648.81 3486.95 1590.96 3486.95 1521.16C3486.95 1451.37 3465.16 1393.18 3421.59 1346.39C3378.01 1299.71 3321.94 1276.38 3253.49 1276.38C3184.92 1276.38 3129.29 1299.71 3086.27 1346.39C3043.25 1393.07 3021.8 1451.37 3021.8 1521.16C3021.8 1590.96 3043.25 1648.92 3086.27 1694.94Z" fill="#060000"/>
<path d="M2349.18 936.347C2324.3 912.676 2311.8 882.147 2311.8 844.759C2311.8 807.371 2323.97 776.51 2348.19 752.286C2372.41 728.061 2405.14 715.894 2446.28 715.894C2489.85 715.894 2523.81 727.729 2548.14 751.401C2572.47 775.072 2584.52 806.265 2584.52 844.87C2584.52 882.257 2572.02 912.787 2547.14 936.458C2522.15 960.129 2489.19 971.965 2448.16 971.965C2407.13 971.855 2374.06 960.019 2349.18 936.347Z" fill="#060000"/>
<path d="M3925.66 1448.38C3900.78 1424.71 3888.28 1394.18 3888.28 1356.79C3888.28 1319.4 3900.45 1288.54 3924.67 1264.32C3949 1239.98 3981.62 1227.93 4022.76 1227.93C4066.33 1227.93 4100.28 1239.76 4124.62 1263.43C4148.95 1287.1 4161 1318.3 4161 1356.9C4161 1394.29 4148.5 1424.82 4123.62 1448.49C4098.63 1472.16 4065.67 1484 4024.64 1484C3983.61 1483.89 3950.54 1472.05 3925.66 1448.38Z" fill="#060000"/>
<path d="M3684.13 778.501C3659.25 754.83 3646.75 724.3 3646.75 686.913C3646.75 649.525 3658.91 618.664 3683.13 594.44C3707.46 570.104 3740.09 558.047 3781.23 558.047C3824.8 558.047 3858.75 569.883 3883.08 593.555C3907.41 617.226 3919.47 648.419 3919.47 687.023C3919.47 724.411 3906.97 754.94 3882.09 778.612C3857.09 802.283 3824.14 814.119 3783.11 814.119C3742.08 814.008 3709.01 802.173 3684.13 778.501Z" fill="#060000"/>
<path d="M1183.66 808.368C1158.78 784.697 1146.28 754.167 1146.28 716.78C1146.28 679.392 1158.44 648.531 1182.66 624.307C1206.88 600.082 1239.62 587.915 1280.76 587.915C1324.33 587.915 1358.28 599.75 1382.61 623.422C1406.94 647.093 1419 678.286 1419 716.891C1419 754.278 1406.5 784.808 1381.62 808.479C1356.62 832.15 1323.67 843.986 1282.64 843.986C1241.61 843.875 1208.54 832.04 1183.66 808.368Z" fill="#060000"/>
<path d="M3336.32 2686.37C3311.44 2662.7 3298.94 2632.17 3298.94 2594.78C3298.94 2557.39 3311.1 2526.53 3335.32 2502.31C3359.65 2477.97 3392.28 2465.92 3433.42 2465.92C3476.99 2465.92 3510.94 2477.75 3535.27 2501.42C3559.6 2525.1 3571.66 2556.29 3571.66 2594.89C3571.66 2632.28 3559.16 2662.81 3534.28 2686.48C3509.28 2710.15 3476.33 2721.99 3435.3 2721.99C3394.16 2721.88 3361.2 2710.04 3336.32 2686.37Z" fill="#060000"/>
<path d="M1740.6 432.059C1715.71 408.387 1703.22 377.858 1703.22 340.47C1703.22 303.083 1715.38 272.221 1739.6 247.997C1763.82 223.772 1796.56 211.605 1837.7 211.605C1881.27 211.605 1915.22 223.441 1939.55 247.112C1963.88 270.783 1975.94 301.977 1975.94 340.581C1975.94 377.968 1963.44 408.498 1938.56 432.169C1913.56 455.841 1880.61 467.676 1839.58 467.676C1798.55 467.566 1765.59 455.73 1740.6 432.059Z" fill="#060000"/>
<path d="M3787.53 2269.58C3762.65 2245.91 3750.15 2215.38 3750.15 2177.99C3750.15 2140.6 3762.32 2109.74 3786.54 2085.52C3810.87 2061.18 3843.49 2049.12 3884.63 2049.12C3928.2 2049.12 3962.16 2060.96 3986.49 2084.63C4010.82 2108.3 4022.87 2139.5 4022.87 2178.1C4022.87 2215.49 4010.37 2246.02 3985.49 2269.69C3960.5 2293.36 3927.54 2305.19 3886.51 2305.19C3845.37 2305.08 3812.41 2293.25 3787.53 2269.58Z" fill="#060000"/>
<path d="M898.112 2462.05C873.229 2438.38 860.733 2407.85 860.733 2370.46C860.733 2333.07 872.898 2302.21 897.117 2277.99C921.337 2253.76 954.072 2241.59 995.212 2241.59C1038.78 2241.59 1072.74 2253.43 1097.07 2277.1C1121.4 2300.77 1133.45 2331.96 1133.45 2370.57C1133.45 2407.96 1120.95 2438.49 1096.07 2462.16C1071.08 2485.83 1038.12 2497.66 997.092 2497.66C956.062 2497.55 922.996 2485.72 898.112 2462.05Z" fill="#060000"/>
<path d="M37.3799 1749.14C12.4968 1725.47 0 1694.94 0 1657.55C0 1620.16 12.165 1589.3 36.3845 1565.08C60.604 1540.85 93.3391 1528.69 134.479 1528.69C178.052 1528.69 212.004 1540.52 236.334 1564.19C260.664 1587.87 272.718 1619.06 272.718 1657.66C272.718 1695.05 260.221 1725.58 235.338 1749.25C210.345 1772.92 177.389 1784.76 136.359 1784.76C95.3297 1784.54 62.3735 1772.81 37.3799 1749.14Z" fill="#060000"/>
<path d="M3333.44 264.257C3310.22 241.581 3277.71 230.298 3236.01 230.298C3196.64 230.298 3165.34 241.913 3142.12 265.141C3118.9 288.37 3107.28 317.904 3107.28 353.633C3107.28 387.591 3115.14 423.32 3091.03 451.526C3068.14 478.405 3036.17 475.308 3004.66 475.308C2965.29 475.308 2933.99 486.923 2910.76 510.152C2887.54 533.381 2875.93 562.914 2875.93 598.643C2875.93 634.371 2887.87 663.684 2911.65 686.249C2935.54 708.925 2967.05 720.208 3006.43 720.208C3045.8 720.208 3077.31 708.925 3101.2 686.249C3131.17 657.821 3136.7 622.425 3136.48 583.157C3136.26 550.747 3137.7 516.125 3164.9 493.891C3189.56 473.649 3221.19 477.963 3250.83 475.087C3281.13 472.1 3310 462.588 3332.56 441.239C3356.34 418.563 3368.28 389.361 3368.28 353.633C3368.28 316.688 3356.67 286.932 3333.44 264.257Z" fill="#060000"/>
<path d="M3229.49 231.404C3195.54 231.404 3159.82 239.258 3131.62 215.144C3104.74 192.247 3107.84 160.28 3107.84 128.755C3107.84 89.3761 3096.23 58.0724 3073 34.8434C3049.78 11.6145 3020.25 0 2984.53 0C2948.81 0 2919.5 11.9463 2896.94 35.7283C2874.27 59.6209 2862.99 91.1459 2862.99 130.525C2862.99 169.903 2874.27 201.428 2896.94 225.321C2925.36 255.297 2960.75 260.828 3000.01 260.607C3032.41 260.385 3067.03 261.823 3089.26 289.034C3109.5 313.701 3105.18 345.337 3108.06 374.981" fill="#060000"/>
<path d="M1719.25 2279.64C1696.58 2302.87 1685.3 2335.39 1685.3 2377.09C1685.3 2416.47 1696.91 2447.78 1720.14 2471.01C1743.36 2494.24 1772.89 2505.85 1808.61 2505.85C1842.56 2505.85 1878.28 2498 1906.48 2522.11C1933.36 2545.01 1930.26 2576.97 1930.26 2608.5C1930.26 2647.88 1941.87 2679.18 1965.1 2702.41C1988.32 2725.64 2017.85 2737.25 2053.57 2737.25C2089.29 2737.25 2118.6 2725.31 2141.16 2701.53C2163.83 2677.63 2175.11 2646.11 2175.11 2606.73C2175.11 2567.35 2163.83 2535.83 2141.16 2511.93C2112.74 2481.96 2077.35 2476.43 2038.09 2476.65C2005.68 2476.87 1971.07 2475.43 1948.84 2448.22C1928.6 2423.55 1932.92 2391.92 1930.04 2362.27C1927.05 2331.96 1917.54 2303.09 1896.2 2280.53C1873.53 2256.75 1844.33 2244.8 1808.61 2244.8C1771.78 2244.8 1741.92 2256.42 1719.25 2279.64Z" fill="#060000"/>
<path d="M1686.41 2383.73C1686.41 2417.69 1694.26 2453.42 1670.15 2481.63C1647.26 2508.5 1615.3 2505.41 1583.78 2505.41C1544.41 2505.41 1513.11 2517.02 1489.89 2540.25C1466.66 2563.48 1455.05 2593.01 1455.05 2628.74C1455.05 2664.47 1466.99 2693.78 1490.77 2716.35C1514.66 2739.02 1546.18 2750.31 1585.55 2750.31C1624.92 2750.31 1656.44 2739.02 1680.32 2716.35C1710.29 2687.92 1715.82 2652.52 1715.6 2613.26C1715.38 2580.85 1716.82 2546.22 1744.03 2523.99C1768.69 2503.75 1800.32 2508.06 1829.95 2505.19" fill="#060000"/>
<path d="M2386.67 2955.27C2409.34 2932.04 2420.62 2899.52 2420.62 2857.82C2420.62 2818.44 2409.01 2787.14 2385.79 2763.91C2362.56 2740.68 2333.03 2729.07 2297.31 2729.07C2263.36 2729.07 2227.64 2736.92 2199.44 2712.81C2172.57 2689.91 2175.66 2657.94 2175.66 2626.42C2175.66 2587.04 2164.05 2555.74 2140.83 2532.51C2117.6 2509.28 2088.07 2497.66 2052.35 2497.66C2016.63 2497.66 1987.33 2509.61 1964.77 2533.39C1942.09 2557.28 1930.81 2588.81 1930.81 2628.19C1930.81 2667.57 1942.09 2699.09 1964.77 2722.98C1993.19 2752.96 2028.58 2758.49 2067.84 2758.27C2100.24 2758.05 2134.86 2759.49 2157.08 2786.7C2177.32 2811.36 2173.01 2843 2175.88 2872.64C2178.87 2902.95 2188.38 2931.82 2209.73 2954.39C2232.4 2978.17 2261.59 2990.12 2297.31 2990.12C2334.25 2990.12 2364 2978.5 2386.67 2955.27Z" fill="#060000"/>
<path d="M2419.52 2851.19C2419.52 2817.23 2411.67 2781.5 2435.77 2753.29C2458.67 2726.41 2490.63 2729.51 2522.15 2729.51C2561.52 2729.51 2592.81 2717.9 2616.04 2694.67C2639.26 2671.44 2650.87 2641.9 2650.87 2606.18C2650.87 2570.45 2638.93 2541.14 2615.15 2518.57C2591.27 2495.89 2559.75 2484.61 2520.38 2484.61C2481.01 2484.61 2449.49 2495.89 2425.6 2518.57C2395.63 2547 2390.1 2582.39 2390.32 2621.66C2390.54 2654.07 2389.11 2688.69 2361.9 2710.93C2337.24 2731.17 2305.61 2726.86 2275.97 2729.73" fill="#060000"/>
</svg>
