<svg width="4161" height="2991" viewBox="0 0 4161 2991" fill="none" xmlns="http://www.w3.org/2000/svg">
<path d="M1144.18 1136.23C1180.34 1163.66 1182.11 1196.62 1149.82 1235.23L1076.94 1317.41C1071.96 1322.39 1064.44 1324.94 1054.49 1324.94C1044.54 1324.94 1037.02 1322.5 1032.04 1317.41C994.659 1283.79 950.422 1266.97 899.439 1266.97C837.177 1266.97 796.037 1278.81 776.13 1302.48C736.317 1346.06 769.937 1380.35 876.989 1405.24C884.51 1406.46 891.919 1407.79 899.439 1409C1000.3 1421.5 1076.94 1450.15 1129.25 1494.95C1181.56 1539.75 1207.66 1612.09 1207.66 1711.75C1207.66 1799.03 1173.71 1866.28 1105.8 1913.51C1037.9 1960.86 958.495 1984.53 867.589 1984.53C736.87 1984.53 630.924 1952.78 549.971 1889.18C535.041 1878.01 526.857 1864.29 525.641 1848.03C524.424 1831.88 529.954 1816.95 542.451 1803.23L624.62 1713.52C629.597 1708.54 636.785 1706 646.075 1706C655.364 1706 663.216 1708.54 669.41 1713.52C709.222 1747.15 765.292 1767.72 837.508 1775.24C883.625 1780.22 924.433 1772.48 959.933 1751.91C995.433 1731.33 1002.62 1704.89 981.388 1672.48C967.674 1648.81 919.788 1633.22 837.508 1625.81C639.439 1603.35 540.46 1510.55 540.46 1347.39C540.46 1262.66 573.195 1193.19 638.555 1138.99C703.914 1084.79 779.006 1057.69 863.719 1057.69C928.414 1057.69 981.388 1063.33 1022.53 1074.51C1063.89 1085.79 1104.37 1106.36 1144.18 1136.23Z" fill="#F15848"/>
<path d="M1955.03 1713.63C1972.4 1699.92 1986.77 1699.92 1997.94 1713.63L2095.15 1810.75C2108.87 1823.25 2115.06 1837.3 2113.84 1852.78C2112.63 1868.38 2104.44 1881.1 2089.51 1891.06C2009.78 1953.33 1915.77 1984.53 1807.39 1984.53C1675.35 1984.53 1564.87 1939.73 1475.73 1849.91C1386.7 1760.2 1342.14 1650.03 1342.14 1519.17C1342.14 1387.1 1386.7 1276.6 1475.73 1187.44C1564.76 1098.4 1675.35 1053.82 1807.39 1053.82C1914.56 1053.82 2009.11 1085.01 2091.39 1147.29C2106.32 1158.46 2114.4 1171.84 2115.72 1187.44C2116.94 1203.04 2110.75 1217.09 2097.03 1229.47L1999.93 1326.59C1986.22 1340.31 1971.29 1340.31 1955.14 1326.59C1911.57 1291.75 1861.69 1274.27 1805.62 1274.27C1737.17 1274.27 1681.1 1297.94 1637.53 1345.29C1593.95 1392.63 1572.17 1450.59 1572.17 1519.06C1572.17 1588.86 1593.95 1647.04 1637.53 1693.83C1681.1 1740.51 1737.17 1763.85 1805.62 1763.85C1864.13 1764.07 1913.89 1747.26 1955.03 1713.63Z" fill="#F15848"/>
<path d="M2349.18 936.347C2324.19 912.676 2311.8 882.147 2311.8 844.759C2311.8 807.371 2323.97 776.51 2348.19 752.286C2372.52 727.951 2405.14 715.894 2446.28 715.894C2489.85 715.894 2523.81 727.729 2548.14 751.401C2572.35 775.072 2584.52 806.265 2584.52 844.87C2584.52 882.257 2572.02 912.787 2547.14 936.458C2522.26 960.129 2489.19 971.965 2448.16 971.965C2407.13 971.855 2374.18 960.019 2349.18 936.347ZM2577.11 1881.88C2577.11 1908.09 2568.04 1930.21 2550.02 1948.24C2531.99 1966.27 2509.87 1975.34 2483.66 1975.34H2414.54C2388.44 1975.34 2366.21 1966.27 2348.19 1948.24C2330.16 1930.21 2321.09 1908.09 2321.09 1881.88V1155.03C2321.09 1128.93 2330.16 1106.8 2348.19 1088.66C2366.21 1070.63 2388.33 1061.56 2414.54 1061.56H2483.66C2509.76 1061.56 2531.99 1070.63 2550.02 1088.66C2568.04 1106.69 2577.11 1128.82 2577.11 1155.03V1881.88Z" fill="#F15848"/>
<path d="M3051.66 2266.81C3051.66 2291.7 3042.26 2313.49 3023.57 2332.19C3004.88 2350.88 2983.09 2360.17 2958.21 2360.17L2889.09 2358.29C2862.99 2358.29 2840.76 2349.22 2822.73 2331.19C2804.71 2313.16 2795.64 2291.04 2795.64 2264.82V1154.92C2795.64 1128.82 2804.71 1106.69 2822.73 1088.55C2840.76 1070.52 2862.88 1061.45 2889.09 1061.45H3016.16C3024.89 1061.45 3032.97 1064.88 3040.49 1071.74C3048.01 1078.6 3051.66 1087 3051.66 1096.96C3051.66 1105.7 3055.09 1111.89 3061.94 1115.65C3068.8 1119.41 3075.32 1118.75 3081.52 1113.77C3138.8 1078.93 3195.43 1061.45 3251.5 1061.45C3383.54 1061.45 3492.47 1105.03 3578.4 1192.31C3664.33 1279.47 3707.35 1387.87 3707.35 1517.51C3707.35 1644.61 3663.78 1754.23 3576.52 1846.37C3489.38 1938.62 3381 1981.54 3251.39 1975.35C3177.84 1970.37 3119.34 1952.34 3075.77 1921.14C3072.01 1919.93 3068.58 1919.26 3065.48 1919.26C3062.38 1919.26 3059.18 1920.26 3056.08 1922.03C3052.98 1923.8 3051.44 1926.67 3051.44 1930.44V2266.81H3051.66ZM3086.27 1694.94C3129.29 1741.06 3184.92 1764.07 3253.49 1764.07C3321.94 1764.07 3378.01 1741.06 3421.59 1694.94C3465.16 1648.81 3486.95 1590.96 3486.95 1521.16C3486.95 1451.37 3465.16 1393.18 3421.59 1346.39C3378.01 1299.71 3321.94 1276.38 3253.49 1276.38C3184.92 1276.38 3129.29 1299.71 3086.27 1346.39C3043.25 1393.07 3021.8 1451.37 3021.8 1521.16C3021.8 1590.96 3043.25 1648.92 3086.27 1694.94Z" fill="#F15848"/>
</svg>
